<mxfile host="app.diagrams.net" agent="Mozilla/5.0 (Windows NT 10.0; Win64; x64) AppleWebKit/537.36 (KHTML, like Gecko) Chrome/134.0.0.0 Safari/537.36" version="26.1.1">
  <diagram id="C5RBs43oDa-KdzZeNtuy" name="Page-1">
    <mxGraphModel dx="1480" dy="776" grid="1" gridSize="10" guides="1" tooltips="1" connect="1" arrows="1" fold="1" page="1" pageScale="1" pageWidth="827" pageHeight="1169" math="0" shadow="0">
      <root>
        <mxCell id="WIyWlLk6GJQsqaUBKTNV-0" />
        <mxCell id="WIyWlLk6GJQsqaUBKTNV-1" parent="WIyWlLk6GJQsqaUBKTNV-0" />
        <mxCell id="5sVU0d2wpnQe6PCDRjBi-22" style="edgeStyle=orthogonalEdgeStyle;rounded=0;orthogonalLoop=1;jettySize=auto;html=1;entryX=0;entryY=0.5;entryDx=0;entryDy=0;" edge="1" parent="WIyWlLk6GJQsqaUBKTNV-1" source="5sVU0d2wpnQe6PCDRjBi-0" target="5sVU0d2wpnQe6PCDRjBi-1">
          <mxGeometry relative="1" as="geometry" />
        </mxCell>
        <mxCell id="5sVU0d2wpnQe6PCDRjBi-0" value="Mulai" style="ellipse;whiteSpace=wrap;html=1;" vertex="1" parent="WIyWlLk6GJQsqaUBKTNV-1">
          <mxGeometry x="20" y="30" width="120" height="80" as="geometry" />
        </mxCell>
        <mxCell id="5sVU0d2wpnQe6PCDRjBi-9" style="edgeStyle=orthogonalEdgeStyle;rounded=0;orthogonalLoop=1;jettySize=auto;html=1;" edge="1" parent="WIyWlLk6GJQsqaUBKTNV-1" source="5sVU0d2wpnQe6PCDRjBi-1" target="5sVU0d2wpnQe6PCDRjBi-3">
          <mxGeometry relative="1" as="geometry" />
        </mxCell>
        <mxCell id="5sVU0d2wpnQe6PCDRjBi-1" value="Input Data Pengiriman" style="shape=parallelogram;perimeter=parallelogramPerimeter;whiteSpace=wrap;html=1;fixedSize=1;" vertex="1" parent="WIyWlLk6GJQsqaUBKTNV-1">
          <mxGeometry x="250" y="40" width="120" height="60" as="geometry" />
        </mxCell>
        <mxCell id="5sVU0d2wpnQe6PCDRjBi-6" style="edgeStyle=orthogonalEdgeStyle;rounded=0;orthogonalLoop=1;jettySize=auto;html=1;entryX=0.5;entryY=0;entryDx=0;entryDy=0;" edge="1" parent="WIyWlLk6GJQsqaUBKTNV-1" source="5sVU0d2wpnQe6PCDRjBi-3" target="5sVU0d2wpnQe6PCDRjBi-5">
          <mxGeometry relative="1" as="geometry" />
        </mxCell>
        <mxCell id="5sVU0d2wpnQe6PCDRjBi-3" value="Menentukan Titik Awal" style="rounded=0;whiteSpace=wrap;html=1;" vertex="1" parent="WIyWlLk6GJQsqaUBKTNV-1">
          <mxGeometry x="250" y="160" width="120" height="60" as="geometry" />
        </mxCell>
        <mxCell id="5sVU0d2wpnQe6PCDRjBi-12" style="edgeStyle=orthogonalEdgeStyle;rounded=0;orthogonalLoop=1;jettySize=auto;html=1;" edge="1" parent="WIyWlLk6GJQsqaUBKTNV-1" source="5sVU0d2wpnQe6PCDRjBi-5" target="5sVU0d2wpnQe6PCDRjBi-11">
          <mxGeometry relative="1" as="geometry" />
        </mxCell>
        <mxCell id="5sVU0d2wpnQe6PCDRjBi-5" value="Hitung Jarak Setiap Data&amp;nbsp;" style="rounded=0;whiteSpace=wrap;html=1;" vertex="1" parent="WIyWlLk6GJQsqaUBKTNV-1">
          <mxGeometry x="250" y="280" width="120" height="60" as="geometry" />
        </mxCell>
        <mxCell id="5sVU0d2wpnQe6PCDRjBi-14" style="edgeStyle=orthogonalEdgeStyle;rounded=0;orthogonalLoop=1;jettySize=auto;html=1;entryX=0;entryY=0.5;entryDx=0;entryDy=0;" edge="1" parent="WIyWlLk6GJQsqaUBKTNV-1" source="5sVU0d2wpnQe6PCDRjBi-11" target="5sVU0d2wpnQe6PCDRjBi-13">
          <mxGeometry relative="1" as="geometry" />
        </mxCell>
        <mxCell id="5sVU0d2wpnQe6PCDRjBi-11" value="Mengelompokkan Data ke Klaster Terdekat" style="rounded=0;whiteSpace=wrap;html=1;" vertex="1" parent="WIyWlLk6GJQsqaUBKTNV-1">
          <mxGeometry x="250" y="400" width="120" height="60" as="geometry" />
        </mxCell>
        <mxCell id="5sVU0d2wpnQe6PCDRjBi-15" style="edgeStyle=orthogonalEdgeStyle;rounded=0;orthogonalLoop=1;jettySize=auto;html=1;entryX=1;entryY=0.5;entryDx=0;entryDy=0;" edge="1" parent="WIyWlLk6GJQsqaUBKTNV-1" source="5sVU0d2wpnQe6PCDRjBi-13" target="5sVU0d2wpnQe6PCDRjBi-5">
          <mxGeometry relative="1" as="geometry">
            <Array as="points">
              <mxPoint x="525" y="310" />
            </Array>
          </mxGeometry>
        </mxCell>
        <mxCell id="5sVU0d2wpnQe6PCDRjBi-16" value="&lt;b&gt;YA&lt;/b&gt;" style="edgeLabel;html=1;align=center;verticalAlign=middle;resizable=0;points=[];" vertex="1" connectable="0" parent="5sVU0d2wpnQe6PCDRjBi-15">
          <mxGeometry x="0.2174" relative="1" as="geometry">
            <mxPoint as="offset" />
          </mxGeometry>
        </mxCell>
        <mxCell id="5sVU0d2wpnQe6PCDRjBi-18" style="edgeStyle=orthogonalEdgeStyle;rounded=0;orthogonalLoop=1;jettySize=auto;html=1;" edge="1" parent="WIyWlLk6GJQsqaUBKTNV-1" source="5sVU0d2wpnQe6PCDRjBi-13" target="5sVU0d2wpnQe6PCDRjBi-17">
          <mxGeometry relative="1" as="geometry" />
        </mxCell>
        <mxCell id="5sVU0d2wpnQe6PCDRjBi-19" value="&lt;b&gt;TIDAK&lt;/b&gt;" style="edgeLabel;html=1;align=center;verticalAlign=middle;resizable=0;points=[];" vertex="1" connectable="0" parent="5sVU0d2wpnQe6PCDRjBi-18">
          <mxGeometry x="-0.2322" relative="1" as="geometry">
            <mxPoint as="offset" />
          </mxGeometry>
        </mxCell>
        <mxCell id="5sVU0d2wpnQe6PCDRjBi-13" value="Cek Konvergensi" style="rhombus;whiteSpace=wrap;html=1;" vertex="1" parent="WIyWlLk6GJQsqaUBKTNV-1">
          <mxGeometry x="470" y="375" width="110" height="110" as="geometry" />
        </mxCell>
        <mxCell id="5sVU0d2wpnQe6PCDRjBi-21" style="edgeStyle=orthogonalEdgeStyle;rounded=0;orthogonalLoop=1;jettySize=auto;html=1;entryX=0.5;entryY=0;entryDx=0;entryDy=0;" edge="1" parent="WIyWlLk6GJQsqaUBKTNV-1" source="5sVU0d2wpnQe6PCDRjBi-17" target="5sVU0d2wpnQe6PCDRjBi-20">
          <mxGeometry relative="1" as="geometry" />
        </mxCell>
        <mxCell id="5sVU0d2wpnQe6PCDRjBi-17" value="Penghitungan Tarif" style="rounded=0;whiteSpace=wrap;html=1;" vertex="1" parent="WIyWlLk6GJQsqaUBKTNV-1">
          <mxGeometry x="465" y="580" width="120" height="60" as="geometry" />
        </mxCell>
        <mxCell id="5sVU0d2wpnQe6PCDRjBi-20" value="Penampilan JumlahTarif" style="ellipse;whiteSpace=wrap;html=1;" vertex="1" parent="WIyWlLk6GJQsqaUBKTNV-1">
          <mxGeometry x="465" y="700" width="120" height="80" as="geometry" />
        </mxCell>
      </root>
    </mxGraphModel>
  </diagram>
</mxfile>
